# xmcd
#
# Track frame offsets:
#	150
#	18174
#	36156
#	52577
#	71346
#	90461
#	108077
#	125814
#	143470
#	159853
#	178571
#	197626
#
# Disc length: 2864 seconds
#
# Revision: 1
# Processed by: cddbd v1.5.1PL2 Copyright (c) Steve Scherf et al.
# Submitted via: audiograbber 1.83.01
#
DISCID=880b2e0c
DTITLE=Oslin, K.T. - Cb20227
DYEAR=1900
DGENRE=Country
TTITLE0=Come Next Monday (Vocals)
TTITLE1=Didn't Expect It To Go Down This Way (Vocals)
TTITLE2=Do Ya (Vocals)
TTITLE3=Hey Bobby (Vocals)
TTITLE4=I'll Always Come Back (Vocals)
TTITLE5=Mary and Willie (Vocals)
TTITLE6=Come Next Monday
TTITLE7=Didn't Expect It To Go Down This Way
TTITLE8=Do Ya
TTITLE9=Hey Bobby
TTITLE10=I'll Always Come Back
TTITLE11=Mary and Willie
EXTD=
EXTT0=
EXTT1=
EXTT2=
EXTT3=
EXTT4=
EXTT5=
EXTT6=
EXTT7=
EXTT8=
EXTT9=
EXTT10=
EXTT11=
PLAYORDER=
